<svg width="160" height="160" viewBox="0 0 160 160" fill="none" xmlns="http://www.w3.org/2000/svg">
<circle cx="80" cy="80" r="78" fill="black" stroke="#E6E6E6" stroke-width="4"/>
<path d="M32.6924 74.7833L27.0371 88.0836C26.9149 88.4153 26.7229 88.6771 26.4611 88.8691C26.2167 89.0436 25.9462 89.1309 25.6495 89.1309C25.1782 89.1309 24.8291 89 24.6022 88.7382C24.3753 88.4764 24.2618 88.1535 24.2618 87.7695C24.2618 87.6124 24.288 87.4465 24.3404 87.272L30.8596 71.6153C30.9993 71.2662 31.2087 70.9956 31.488 70.8036C31.7847 70.6116 32.0989 70.5331 32.4305 70.568C32.7447 70.568 33.0327 70.664 33.2945 70.856C33.5738 71.0305 33.7745 71.2836 33.8967 71.6153L40.3375 86.9578C40.4247 87.1847 40.4684 87.3942 40.4684 87.5862C40.4684 88.0575 40.3113 88.4327 39.9971 88.712C39.7004 88.9913 39.3687 89.1309 39.0022 89.1309C38.688 89.1309 38.4 89.0349 38.1382 88.8429C37.8938 88.6509 37.7018 88.3891 37.5622 88.0575L31.9331 74.9404L32.6924 74.7833ZM27.8487 84.8895L29.2887 81.8785H36.3578L36.8553 84.8895H27.8487ZM43.9943 89C43.5405 89 43.1652 88.8516 42.8685 88.5549C42.5718 88.2407 42.4234 87.8567 42.4234 87.4029V76.5898C42.4234 76.136 42.5718 75.7607 42.8685 75.464C43.1652 75.1498 43.5405 74.9927 43.9943 74.9927C44.4481 74.9927 44.8234 75.1498 45.1201 75.464C45.4169 75.7607 45.5652 76.136 45.5652 76.5898V79.0509L45.382 77.2967C45.574 76.8778 45.8183 76.5113 46.115 76.1971C46.4292 75.8655 46.7783 75.5949 47.1623 75.3855C47.5463 75.1585 47.9565 74.9927 48.3929 74.888C48.8292 74.7833 49.2656 74.7309 49.702 74.7309C50.2256 74.7309 50.662 74.8793 51.011 75.176C51.3776 75.4727 51.5609 75.8218 51.5609 76.2233C51.5609 76.7993 51.4125 77.2182 51.1158 77.48C50.819 77.7244 50.4961 77.8465 50.147 77.8465C49.8154 77.8465 49.51 77.7855 49.2307 77.6633C48.9689 77.5411 48.6634 77.48 48.3143 77.48C48.0001 77.48 47.6772 77.5585 47.3456 77.7156C47.0314 77.8553 46.7347 78.0822 46.4554 78.3964C46.1936 78.7105 45.9754 79.1033 45.8009 79.5745C45.6438 80.0284 45.5652 80.5695 45.5652 81.1978V87.4029C45.5652 87.8567 45.4169 88.2407 45.1201 88.5549C44.8234 88.8516 44.4481 89 43.9943 89ZM56.7342 87.4029C56.7342 87.8567 56.5859 88.2407 56.2891 88.5549C55.9924 88.8516 55.6171 89 55.1633 89C54.7095 89 54.3342 88.8516 54.0375 88.5549C53.7408 88.2407 53.5924 87.8567 53.5924 87.4029V76.5898C53.5924 76.136 53.7408 75.7607 54.0375 75.464C54.3342 75.1498 54.7095 74.9927 55.1633 74.9927C55.6171 74.9927 55.9924 75.1498 56.2891 75.464C56.5859 75.7607 56.7342 76.136 56.7342 76.5898V87.4029ZM55.1371 73.2909C54.5437 73.2909 54.1248 73.1949 53.8804 73.0029C53.636 72.8109 53.5139 72.4705 53.5139 71.9818V71.4844C53.5139 70.9782 53.6448 70.6378 53.9066 70.4633C54.1859 70.2713 54.6048 70.1753 55.1633 70.1753C55.7742 70.1753 56.2019 70.2713 56.4462 70.4633C56.6906 70.6553 56.8128 70.9956 56.8128 71.4844V71.9818C56.8128 72.488 56.6819 72.8371 56.42 73.0291C56.1582 73.2036 55.7306 73.2909 55.1371 73.2909ZM61.7959 89C61.3421 89 60.9668 88.8516 60.6701 88.5549C60.3734 88.2407 60.225 87.8567 60.225 87.4029V71.2225C60.225 70.7687 60.3734 70.3935 60.6701 70.0967C60.9668 69.7825 61.3421 69.6255 61.7959 69.6255C62.2497 69.6255 62.625 69.7825 62.9217 70.0967C63.2185 70.3935 63.3668 70.7687 63.3668 71.2225V87.4029C63.3668 87.8567 63.2185 88.2407 62.9217 88.5549C62.625 88.8516 62.2497 89 61.7959 89ZM70.1217 74.9927C70.5232 74.9927 70.8723 75.1585 71.169 75.4902C71.4657 75.8218 71.6141 76.1447 71.6141 76.4589C71.6141 76.8778 71.4046 77.2705 70.9857 77.6371L63.105 84.8895L62.9741 81.2764L68.9697 75.4902C69.3014 75.1585 69.6854 74.9927 70.1217 74.9927ZM70.5145 88.9738C70.0606 88.9738 69.6766 88.7993 69.3625 88.4502L64.5188 83.3185L66.9014 81.1193L71.6141 86.2509C71.9457 86.6 72.1115 86.9927 72.1115 87.4291C72.1115 87.8829 71.9283 88.2582 71.5617 88.5549C71.2126 88.8342 70.8635 88.9738 70.5145 88.9738ZM82.2265 74.7309C83.6229 74.7309 84.6527 75.0713 85.316 75.752C85.9793 76.4153 86.4156 77.2793 86.6251 78.344L86.18 78.1084L86.3894 77.6895C86.5989 77.288 86.9218 76.8604 87.3582 76.4065C87.7945 75.9353 88.3182 75.5425 88.9291 75.2284C89.5574 74.8967 90.2556 74.7309 91.0236 74.7309C92.2803 74.7309 93.2316 75.0015 93.8774 75.5425C94.5407 76.0836 94.9945 76.808 95.2389 77.7156C95.4833 78.6058 95.6054 79.6007 95.6054 80.7004V87.4029C95.6054 87.8567 95.4571 88.2407 95.1603 88.5549C94.8636 88.8516 94.4883 89 94.0345 89C93.5807 89 93.2054 88.8516 92.9087 88.5549C92.612 88.2407 92.4636 87.8567 92.4636 87.4029V80.7004C92.4636 80.1244 92.3938 79.6095 92.2542 79.1556C92.1145 78.6844 91.8614 78.3091 91.4949 78.0298C91.1283 77.7505 90.6047 77.6109 89.924 77.6109C89.2607 77.6109 88.6934 77.7505 88.2222 78.0298C87.7509 78.3091 87.3931 78.6844 87.1487 79.1556C86.9218 79.6095 86.8083 80.1244 86.8083 80.7004V87.4029C86.8083 87.8567 86.66 88.2407 86.3633 88.5549C86.0665 88.8516 85.6913 89 85.2374 89C84.7836 89 84.4083 88.8516 84.1116 88.5549C83.8149 88.2407 83.6665 87.8567 83.6665 87.4029V80.7004C83.6665 80.1244 83.5967 79.6095 83.4571 79.1556C83.3174 78.6844 83.0643 78.3091 82.6978 78.0298C82.3313 77.7505 81.8076 77.6109 81.1269 77.6109C80.4636 77.6109 79.8963 77.7505 79.4251 78.0298C78.9538 78.3091 78.596 78.6844 78.3516 79.1556C78.1247 79.6095 78.0113 80.1244 78.0113 80.7004V87.4029C78.0113 87.8567 77.8629 88.2407 77.5662 88.5549C77.2694 88.8516 76.8942 89 76.4403 89C75.9865 89 75.6113 88.8516 75.3145 88.5549C75.0178 88.2407 74.8694 87.8567 74.8694 87.4029V76.5898C74.8694 76.136 75.0178 75.7607 75.3145 75.464C75.6113 75.1498 75.9865 74.9927 76.4403 74.9927C76.8942 74.9927 77.2694 75.1498 77.5662 75.464C77.8629 75.7607 78.0113 76.136 78.0113 76.5898V77.7156L77.6185 77.6371C77.7756 77.3404 77.9938 77.0262 78.2731 76.6945C78.5523 76.3455 78.8927 76.0225 79.2942 75.7258C79.6956 75.4291 80.1407 75.1935 80.6294 75.0189C81.1182 74.8269 81.6505 74.7309 82.2265 74.7309ZM106.363 74.7309C107.62 74.7309 108.571 75.0015 109.217 75.5425C109.88 76.0836 110.334 76.808 110.578 77.7156C110.823 78.6058 110.945 79.6007 110.945 80.7004V87.4029C110.945 87.8567 110.796 88.2407 110.5 88.5549C110.203 88.8516 109.828 89 109.374 89C108.92 89 108.545 88.8516 108.248 88.5549C107.951 88.2407 107.803 87.8567 107.803 87.4029V80.7004C107.803 80.1244 107.733 79.6095 107.593 79.1556C107.454 78.6844 107.201 78.3091 106.834 78.0298C106.468 77.7505 105.944 77.6109 105.263 77.6109C104.6 77.6109 104.033 77.7505 103.561 78.0298C103.09 78.3091 102.732 78.6844 102.488 79.1556C102.261 79.6095 102.148 80.1244 102.148 80.7004V87.4029C102.148 87.8567 101.999 88.2407 101.703 88.5549C101.406 88.8516 101.031 89 100.577 89C100.123 89 99.7476 88.8516 99.4509 88.5549C99.1542 88.2407 99.0058 87.8567 99.0058 87.4029V71.2225C99.0058 70.7687 99.1542 70.3935 99.4509 70.0967C99.7476 69.7825 100.123 69.6255 100.577 69.6255C101.031 69.6255 101.406 69.7825 101.703 70.0967C101.999 70.3935 102.148 70.7687 102.148 71.2225V77.7156L101.755 77.6371C101.912 77.3404 102.13 77.0262 102.409 76.6945C102.689 76.3455 103.029 76.0225 103.431 75.7258C103.832 75.4291 104.277 75.1935 104.766 75.0189C105.255 74.8269 105.787 74.7309 106.363 74.7309ZM121.704 74.7309C123.1 74.7309 124.13 75.0713 124.793 75.752C125.457 76.4153 125.893 77.2793 126.102 78.344L125.657 78.1084L125.867 77.6895C126.076 77.288 126.399 76.8604 126.835 76.4065C127.272 75.9353 127.795 75.5425 128.406 75.2284C129.035 74.8967 129.733 74.7309 130.501 74.7309C131.758 74.7309 132.709 75.0015 133.355 75.5425C134.018 76.0836 134.472 76.808 134.716 77.7156C134.961 78.6058 135.083 79.6007 135.083 80.7004V87.4029C135.083 87.8567 134.934 88.2407 134.638 88.5549C134.341 88.8516 133.966 89 133.512 89C133.058 89 132.683 88.8516 132.386 88.5549C132.089 88.2407 131.941 87.8567 131.941 87.4029V80.7004C131.941 80.1244 131.871 79.6095 131.731 79.1556C131.592 78.6844 131.339 78.3091 130.972 78.0298C130.606 77.7505 130.082 77.6109 129.401 77.6109C128.738 77.6109 128.171 77.7505 127.699 78.0298C127.228 78.3091 126.87 78.6844 126.626 79.1556C126.399 79.6095 126.286 80.1244 126.286 80.7004V87.4029C126.286 87.8567 126.137 88.2407 125.841 88.5549C125.544 88.8516 125.169 89 124.715 89C124.261 89 123.886 88.8516 123.589 88.5549C123.292 88.2407 123.144 87.8567 123.144 87.4029V80.7004C123.144 80.1244 123.074 79.6095 122.934 79.1556C122.795 78.6844 122.542 78.3091 122.175 78.0298C121.809 77.7505 121.285 77.6109 120.604 77.6109C119.941 77.6109 119.374 77.7505 118.902 78.0298C118.431 78.3091 118.073 78.6844 117.829 79.1556C117.602 79.6095 117.489 80.1244 117.489 80.7004V87.4029C117.489 87.8567 117.34 88.2407 117.043 88.5549C116.747 88.8516 116.371 89 115.918 89C115.464 89 115.089 88.8516 114.792 88.5549C114.495 88.2407 114.347 87.8567 114.347 87.4029V76.5898C114.347 76.136 114.495 75.7607 114.792 75.464C115.089 75.1498 115.464 74.9927 115.918 74.9927C116.371 74.9927 116.747 75.1498 117.043 75.464C117.34 75.7607 117.489 76.136 117.489 76.5898V77.7156L117.096 77.6371C117.253 77.3404 117.471 77.0262 117.75 76.6945C118.03 76.3455 118.37 76.0225 118.771 75.7258C119.173 75.4291 119.618 75.1935 120.107 75.0189C120.595 74.8269 121.128 74.7309 121.704 74.7309Z" fill="#E6E6E6"/>
</svg>
